<svg class="animated" id="freepik_stories-website-designer" xmlns="http://www.w3.org/2000/svg" viewBox="0 0 500 500" version="1.1" xmlns:xlink="http://www.w3.org/1999/xlink" xmlns:svgjs="http://svgjs.com/svgjs"><style>svg#freepik_stories-website-designer:not(.animated) .animable {opacity: 0;}svg#freepik_stories-website-designer.animated #freepik--background-simple--inject-52 {animation: 1s 1 forwards cubic-bezier(.36,-0.01,.5,1.38) fadeIn;animation-delay: 0s;}svg#freepik_stories-website-designer.animated #freepik--Page--inject-52 {animation: 1s 1 forwards cubic-bezier(.36,-0.01,.5,1.38) slideDown,3s Infinite  linear floating;animation-delay: 0s,1s;}svg#freepik_stories-website-designer.animated #freepik--Character--inject-52 {animation: 1s 1 forwards cubic-bezier(.36,-0.01,.5,1.38) slideRight;animation-delay: 0s;}svg#freepik_stories-website-designer.animated #freepik--Table--inject-52 {animation: 1s 1 forwards cubic-bezier(.36,-0.01,.5,1.38) slideLeft;animation-delay: 0s;}svg#freepik_stories-website-designer.animated #freepik--Coffee--inject-52 {animation: 1s 1 forwards cubic-bezier(.36,-0.01,.5,1.38) slideDown;animation-delay: 0.1s;opacity: 0}svg#freepik_stories-website-designer.animated #freepik--Floor--inject-52 {animation: 1s 1 forwards cubic-bezier(.36,-0.01,.5,1.38) fadeIn;animation-delay: 0s;}            @keyframes fadeIn {                0% {                    opacity: 0;                }                100% {                    opacity: 1;                }            }                    @keyframes slideDown {                0% {                    opacity: 0;                    transform: translateY(-30px);                }                100% {                    opacity: 1;                    transform: translateY(0);                }            }                    @keyframes floating {                0% {                    opacity: 1;                    transform: translateY(0px);                }                50% {                    transform: translateY(-10px);                }                100% {                    opacity: 1;                    transform: translateY(0px);                }            }                    @keyframes slideRight {                0% {                    opacity: 0;                    transform: translateX(30px);                }                100% {                    opacity: 1;                    transform: translateX(0);                }            }                    @keyframes slideLeft {                0% {                    opacity: 0;                    transform: translateX(-30px);                }                100% {                    opacity: 1;                    transform: translateX(0);                }            }        </style><g id="freepik--background-simple--inject-52" class="animable" style="transform-origin: 247.324px 234.612px;"><path d="M465,182.66c-16-52.31-57.15-94.18-105.85-116.25C312.72,45.35,254,35,210,67.35c-29,21.34-45.4,55.54-71.93,79.47-13.19,11.9-27.63,15.77-43.32,22.88-38.25,17.35-70.26,50.79-72.89,94.92-4.4,73.77,54.08,124.8,119.33,141.53,86.23,22.12,150.68,22.12,209.91-1.77,30.76-12.4,62.06-28.1,84.24-53.78,33.54-38.85,42.8-94,35.18-143.93A171.09,171.09,0,0,0,465,182.66Z" style="fill: rgb(18, 211, 207); transform-origin: 247.324px 234.612px;" id="eld95hza2tmp" class="animable"></path><g id="elddexdnvis9p"><path d="M465,182.66c-16-52.31-57.15-94.18-105.85-116.25C312.72,45.35,254,35,210,67.35c-29,21.34-45.4,55.54-71.93,79.47-13.19,11.9-27.63,15.77-43.32,22.88-38.25,17.35-70.26,50.79-72.89,94.92-4.4,73.77,54.08,124.8,119.33,141.53,86.23,22.12,150.68,22.12,209.91-1.77,30.76-12.4,62.06-28.1,84.24-53.78,33.54-38.85,42.8-94,35.18-143.93A171.09,171.09,0,0,0,465,182.66Z" style="fill: rgb(255, 255, 255); opacity: 0.8; transform-origin: 247.324px 234.612px;" class="animable"></path></g></g><g id="freepik--Page--inject-52" class="animable" style="transform-origin: 259.13px 143px;"><rect x="72" y="39" width="343" height="208" style="fill: rgb(255, 255, 255); stroke: rgb(38, 50, 56); stroke-linecap: round; stroke-linejoin: round; transform-origin: 243.5px 143px;" id="elcd0nrhrlwu5" class="animable"></rect><rect x="83.67" y="66.33" width="186" height="16.25" style="fill: none; stroke: rgb(38, 50, 56); stroke-linecap: round; stroke-linejoin: round; transform-origin: 176.67px 74.455px;" id="elpboe67q4orn" class="animable"></rect><rect x="83.67" y="91.79" width="186" height="93.88" style="fill: none; stroke: rgb(38, 50, 56); stroke-linecap: round; stroke-linejoin: round; transform-origin: 176.67px 138.73px;" id="eldckr7xbl2s" class="animable"></rect><rect x="280.21" y="159.66" width="125.97" height="74.78" style="fill: none; stroke: rgb(38, 50, 56); stroke-linecap: round; stroke-linejoin: round; transform-origin: 343.195px 197.05px;" id="eloczhdcmm16h" class="animable"></rect><line x1="280.21" y1="234.44" x2="406.18" y2="159.66" style="fill: none; stroke: rgb(38, 50, 56); stroke-linecap: round; stroke-linejoin: round; transform-origin: 343.195px 197.05px;" id="el80a3y3a8z5y" class="animable"></line><line x1="406.18" y1="234.44" x2="280.21" y2="159.66" style="fill: none; stroke: rgb(38, 50, 56); stroke-linecap: round; stroke-linejoin: round; transform-origin: 343.195px 197.05px;" id="el0ooospd071z" class="animable"></line><line x1="237.07" y1="199.93" x2="267.55" y2="199.93" style="fill: none; stroke: rgb(38, 50, 56); stroke-linecap: round; stroke-linejoin: round; transform-origin: 252.31px 199.93px;" id="elku0wv4r75js" class="animable"></line><line x1="183" y1="199.93" x2="230.74" y2="199.93" style="fill: none; stroke: rgb(38, 50, 56); stroke-linecap: round; stroke-linejoin: round; transform-origin: 206.87px 199.93px;" id="eltu0ckbb1ndc" class="animable"></line><line x1="109.37" y1="199.93" x2="173.79" y2="199.93" style="fill: none; stroke: rgb(38, 50, 56); stroke-linecap: round; stroke-linejoin: round; transform-origin: 141.58px 199.93px;" id="el7kj196k4cro" class="animable"></line><line x1="84.64" y1="199.93" x2="101.89" y2="199.93" style="fill: none; stroke: rgb(38, 50, 56); stroke-linecap: round; stroke-linejoin: round; transform-origin: 93.265px 199.93px;" id="elwohd3s8s2p" class="animable"></line><line x1="129.5" y1="208.55" x2="267.55" y2="208.55" style="fill: none; stroke: rgb(38, 50, 56); stroke-linecap: round; stroke-linejoin: round; transform-origin: 198.525px 208.55px;" id="elph42uokajwg" class="animable"></line><line x1="84.64" y1="208.55" x2="122.6" y2="208.55" style="fill: none; stroke: rgb(38, 50, 56); stroke-linecap: round; stroke-linejoin: round; transform-origin: 103.62px 208.55px;" id="elmfx8bdz8xr" class="animable"></line><line x1="202.55" y1="217.18" x2="267.55" y2="217.18" style="fill: none; stroke: rgb(38, 50, 56); stroke-linecap: round; stroke-linejoin: round; transform-origin: 235.05px 217.18px;" id="elmu3d6mwvbu" class="animable"></line><line x1="138.13" y1="217.18" x2="193.35" y2="217.18" style="fill: none; stroke: rgb(38, 50, 56); stroke-linecap: round; stroke-linejoin: round; transform-origin: 165.74px 217.18px;" id="el2q89f5wh8x2" class="animable"></line><line x1="84.64" y1="217.18" x2="131.8" y2="217.18" style="fill: none; stroke: rgb(38, 50, 56); stroke-linecap: round; stroke-linejoin: round; transform-origin: 108.22px 217.18px;" id="elmzengihk93" class="animable"></line><line x1="192.2" y1="225.81" x2="267.55" y2="225.81" style="fill: none; stroke: rgb(38, 50, 56); stroke-linecap: round; stroke-linejoin: round; transform-origin: 229.875px 225.81px;" id="elyjr3a6llop" class="animable"></line><line x1="130.65" y1="225.81" x2="184.72" y2="225.81" style="fill: none; stroke: rgb(38, 50, 56); stroke-linecap: round; stroke-linejoin: round; transform-origin: 157.685px 225.81px;" id="elzvv435c6af" class="animable"></line><line x1="84.64" y1="225.81" x2="124.33" y2="225.81" style="fill: none; stroke: rgb(38, 50, 56); stroke-linecap: round; stroke-linejoin: round; transform-origin: 104.485px 225.81px;" id="elex2ax0lbcjj" class="animable"></line><line x1="234.19" y1="234.44" x2="267.55" y2="234.44" style="fill: none; stroke: rgb(38, 50, 56); stroke-linecap: round; stroke-linejoin: round; transform-origin: 250.87px 234.44px;" id="eltus0hger1c" class="animable"></line><line x1="155.39" y1="234.44" x2="227.86" y2="234.44" style="fill: none; stroke: rgb(38, 50, 56); stroke-linecap: round; stroke-linejoin: round; transform-origin: 191.625px 234.44px;" id="elx5f24c7lmvq" class="animable"></line><line x1="122.6" y1="234.44" x2="149.06" y2="234.44" style="fill: none; stroke: rgb(38, 50, 56); stroke-linecap: round; stroke-linejoin: round; transform-origin: 135.83px 234.44px;" id="el312dnp0pl5h" class="animable"></line><line x1="96.72" y1="234.44" x2="112.25" y2="234.44" style="fill: none; stroke: rgb(38, 50, 56); stroke-linecap: round; stroke-linejoin: round; transform-origin: 104.485px 234.44px;" id="elz3ocyhmx2vp" class="animable"></line><line x1="84.64" y1="234.44" x2="96.72" y2="234.44" style="fill: none; stroke: rgb(38, 50, 56); stroke-linecap: round; stroke-linejoin: round; transform-origin: 90.68px 234.44px;" id="elj8hiwmqxzlc" class="animable"></line><rect x="72" y="39" width="343" height="15" style="fill: rgb(18, 211, 207); stroke: rgb(38, 50, 56); stroke-linecap: round; stroke-linejoin: round; transform-origin: 243.5px 46.5px;" id="elj8xav2oau5p" class="animable"></rect><rect x="121.27" y="43.5" width="286" height="6.05" style="fill: rgb(255, 255, 255); stroke: rgb(38, 50, 56); stroke-linecap: round; stroke-linejoin: round; transform-origin: 264.27px 46.525px;" id="elay5xmf0r8ug" class="animable"></rect><rect x="77.28" y="43.5" width="38.03" height="6.05" style="fill: rgb(255, 255, 255); stroke: rgb(38, 50, 56); stroke-linecap: round; stroke-linejoin: round; transform-origin: 96.295px 46.525px;" id="el225eqvnt5ab" class="animable"></rect><rect x="304.7" y="74.96" width="130" height="74" style="fill: rgb(255, 255, 255); stroke: rgb(38, 50, 56); stroke-linecap: round; stroke-linejoin: round; transform-origin: 369.7px 111.96px;" id="eleb6nhnokm25" class="animable"></rect><rect x="304.7" y="134.96" width="130" height="14" style="fill: rgb(255, 255, 255); stroke: rgb(38, 50, 56); stroke-linecap: round; stroke-linejoin: round; transform-origin: 369.7px 141.96px;" id="el2e1xhepngov" class="animable"></rect><polygon points="386.81 106.26 352.6 86.51 352.6 126.01 386.81 106.26" style="fill: rgb(18, 211, 207); stroke: rgb(38, 50, 56); stroke-linecap: round; stroke-linejoin: round; transform-origin: 369.705px 106.26px;" id="elmharyjb0ijl" class="animable"></polygon><rect x="301.49" y="71.08" width="7.48" height="7.48" style="fill: rgb(255, 255, 255); stroke: rgb(38, 50, 56); stroke-linecap: round; stroke-linejoin: round; transform-origin: 305.23px 74.82px;" id="elycj1kdfzhc9" class="animable"></rect><rect x="430.62" y="71.08" width="7.48" height="7.48" style="fill: rgb(255, 255, 255); stroke: rgb(38, 50, 56); stroke-linecap: round; stroke-linejoin: round; transform-origin: 434.36px 74.82px;" id="el0qnf1iyi6rf" class="animable"></rect><rect x="301.49" y="143.84" width="7.48" height="7.48" style="fill: rgb(255, 255, 255); stroke: rgb(38, 50, 56); stroke-linecap: round; stroke-linejoin: round; transform-origin: 305.23px 147.58px;" id="elf7pobworh4q" class="animable"></rect><rect x="430.62" y="143.84" width="7.48" height="7.48" style="fill: rgb(255, 255, 255); stroke: rgb(38, 50, 56); stroke-linecap: round; stroke-linejoin: round; transform-origin: 434.36px 147.58px;" id="elzrgtug7l21r" class="animable"></rect><path d="M149.34,135.84v13h-3.23V119.92h3.23v13h7.11v-13h3.22v28.94h-3.22v-13Z" style="fill: rgb(38, 50, 56); transform-origin: 152.89px 134.39px;" id="elvnj0dch4xs" class="animable"></path><path d="M167.15,148.86v-26h-5.33v-2.94h13.85v2.94h-5.33v26Z" style="fill: rgb(38, 50, 56); transform-origin: 168.745px 134.39px;" id="el8qji788ud38" class="animable"></path><path d="M188.52,148.82h-3.1l-4.79-23v23.07h-2.81V119.92h4.5L187.08,143l4.59-23.11h4.5v28.94h-3.06V125.59Z" style="fill: rgb(38, 50, 56); transform-origin: 186.995px 134.39px;" id="el5axu3iypsew" class="animable"></path><path d="M199.48,148.86V119.92h3.22v26H211v2.94Z" style="fill: rgb(38, 50, 56); transform-origin: 205.24px 134.39px;" id="el6ghpokvmfwo" class="animable"></path><path d="M417.2,145.5l6.91,31a1.09,1.09,0,0,0,2,.19l4.48-9.43a1.07,1.07,0,0,1,1-.62l10.42.57a1.09,1.09,0,0,0,.81-1.87L419,144.43A1.09,1.09,0,0,0,417.2,145.5Z" style="fill: rgb(38, 50, 56); transform-origin: 430.157px 160.7px;" id="elg3ecthjc0t8" class="animable"></path><rect x="436.33" y="173" width="9.33" height="9.33" style="fill: rgb(255, 255, 255); stroke: rgb(38, 50, 56); stroke-linecap: round; stroke-linejoin: round; stroke-width: 0.75px; transform-origin: 440.995px 177.665px;" id="ellzulmf2rmv" class="animable"></rect><rect x="435.58" y="172.26" width="1.4" height="1.4" style="fill: rgb(38, 50, 56); transform-origin: 436.28px 172.96px;" id="el0vic1f15zcug" class="animable"></rect><rect x="440.32" y="172.26" width="1.4" height="1.4" style="fill: rgb(38, 50, 56); transform-origin: 441.02px 172.96px;" id="elsr16sykkhz" class="animable"></rect><rect x="444.86" y="172.26" width="1.4" height="1.4" style="fill: rgb(38, 50, 56); transform-origin: 445.56px 172.96px;" id="elqv2l3618qn" class="animable"></rect><rect x="435.58" y="176.98" width="1.4" height="1.4" style="fill: rgb(38, 50, 56); transform-origin: 436.28px 177.68px;" id="elkinynbmhoh" class="animable"></rect><rect x="440.32" y="176.98" width="1.4" height="1.4" style="fill: rgb(38, 50, 56); transform-origin: 441.02px 177.68px;" id="eldyrhproc8wt" class="animable"></rect><rect x="444.86" y="176.98" width="1.4" height="1.4" style="fill: rgb(38, 50, 56); transform-origin: 445.56px 177.68px;" id="elontef4nzug" class="animable"></rect><rect x="435.58" y="181.52" width="1.4" height="1.4" style="fill: rgb(38, 50, 56); transform-origin: 436.28px 182.22px;" id="elofe0ayf0q2j" class="animable"></rect><rect x="440.32" y="181.52" width="1.4" height="1.4" style="fill: rgb(38, 50, 56); transform-origin: 441.02px 182.22px;" id="elucc1gnup29m" class="animable"></rect><rect x="444.86" y="181.52" width="1.4" height="1.4" style="fill: rgb(38, 50, 56); transform-origin: 445.56px 182.22px;" id="elbtyu32g1md" class="animable"></rect></g><g id="freepik--Character--inject-52" class="animable" style="transform-origin: 271.26px 314.36px;"><polygon points="191.47 316.84 188.51 317.42 179.94 275.05 182.9 274.47 191.47 316.84" style="fill: rgb(255, 255, 255); stroke: rgb(38, 50, 56); stroke-linecap: round; stroke-linejoin: round; transform-origin: 185.705px 295.945px;" id="el3ozlpp341p9" class="animable"></polygon><rect x="188.33" y="316" width="56.3" height="2.01" style="fill: rgb(255, 255, 255); stroke: rgb(38, 50, 56); stroke-linecap: round; stroke-linejoin: round; transform-origin: 216.48px 317.005px;" id="elcskugh0vqn9" class="animable"></rect><rect x="260.21" y="421.55" width="86.99" height="4.25" style="fill: rgb(255, 255, 255); stroke: rgb(38, 50, 56); stroke-linecap: round; stroke-linejoin: round; transform-origin: 303.705px 423.675px;" id="elhr2je9opn8q" class="animable"></rect><path d="M360.33,290.59s-8.24,65.32-10.52,85.56,6.68,83.78,6.68,83.78h-5.23l-10.27-72H264.25l-4.91,70.71h-3.92L262,376.48v-8.93a3.48,3.48,0,0,1,3.48-3.48H339l11.51-80.66s1.3-7.51,7.83-5.22S360.33,290.59,360.33,290.59Z" style="fill: rgb(38, 50, 56); stroke: rgb(38, 50, 56); stroke-linecap: round; stroke-linejoin: round; transform-origin: 308.643px 368.843px;" id="elr943p8lo0xj" class="animable"></path><path d="M358.37,278.19a5.25,5.25,0,0,0-.52-.17c.5,1,.8,2.74.2,6-1.31,7.19-15.1,92.75-15.1,92.75h-81l-6.49,82.82h3.92l8.54-71.72H341l10.27,72h5.23s-9-63.53-6.68-83.78,12.06-84.07,12.06-84.07S364.91,280.47,358.37,278.19Z" style="fill: rgb(255, 255, 255); stroke: rgb(38, 50, 56); stroke-linecap: round; stroke-linejoin: round; transform-origin: 309.02px 368.945px;" id="elz512du906me" class="animable"></path><path d="M280.1,296.29l-40.87,2.32L221,309.15l-3.6,6.17,2.82.51,6.43-2.83s7.2-1.28,9.26-2.05S243.6,304,243.6,304l38,6.17Z" style="fill: rgb(255, 255, 255); stroke: rgb(38, 50, 56); stroke-linecap: round; stroke-linejoin: round; transform-origin: 249.5px 306.06px;" id="elkx4hecm5jad" class="animable"></path><path d="M221.15,422.6s-7.2,12.6-8.23,12.6-9.37,1.85-16-1.49-11.57-5.91-13.63-2.83a23.27,23.27,0,0,0-2.57,4.63s6.17,8.74,11.83,11.82,8.08,1.49,14,4.83,6.43,5.91,11.31,4.89,7.72-16.71,9-18.51S233,426.71,233,426.71Z" style="fill: rgb(255, 255, 255); stroke: rgb(38, 50, 56); stroke-linecap: round; stroke-linejoin: round; transform-origin: 206.86px 439.938px;" id="elbap1q5x03od" class="animable"></path><path d="M214.16,433.9c-.59.8-1,1.3-1.24,1.3-1,0-9.37,1.85-16-1.49s-11.57-5.91-13.63-2.83a23.27,23.27,0,0,0-2.57,4.63s6.17,8.74,11.83,11.82,8.08,1.49,14,4.83,6.43,5.91,11.31,4.89c4.33-.92,7-13.31,8.5-17.39C221.92,438.52,217.16,435.81,214.16,433.9Z" style="fill: rgb(38, 50, 56); stroke: rgb(38, 50, 56); stroke-linecap: round; stroke-linejoin: round; transform-origin: 203.54px 443.387px;" id="elf2po8ifasfm" class="animable"></path><path d="M217.8,457.05a3.09,3.09,0,0,0,.43-.14.84.84,0,0,0,.14-.06l.28-.14.16-.1.25-.17.16-.13.24-.21.15-.15a3.07,3.07,0,0,0,.25-.26l.14-.16c.08-.1.17-.2.25-.31l.12-.15.29-.42.07-.1c.2-.3.39-.63.58-1-5,0-8.4-3.15-13.79-5-6.68-2.31-7.06-.45-11.94-3.8s-5.4-5.39-5.4-5.39l4.33-6.84c-5.47-2.7-9.46-4.36-11.27-1.65a23.27,23.27,0,0,0-2.57,4.63s6.17,8.74,11.83,11.82,8.08,1.49,14,4.83S212.92,458.07,217.8,457.05Z" style="fill: rgb(255, 255, 255); stroke: rgb(38, 50, 56); stroke-linecap: round; stroke-linejoin: round; transform-origin: 200.99px 443.381px;" id="elq3fzbb5ogg" class="animable"></path><path d="M228.86,358.33,206,415.4l27.25,15.43s29-65.81,29.3-67.1,5.4-2.57,5.4-2.57L288.75,364s-31.36-13.88-40.61-15.94S232.71,347.54,228.86,358.33Z" style="fill: rgb(18, 211, 207); stroke: rgb(38, 50, 56); stroke-linecap: round; stroke-linejoin: round; transform-origin: 247.375px 389.053px;" id="elhmyqom5yku" class="animable"></path><path d="M252.59,402.72l12.86,12.08s-4.37,10.8-9.51,17.74-5.66,11-3.35,12.59,6.94,1.29,10-.77,20.56-19.28,22.62-22.36a5.17,5.17,0,0,0-1-6.68c-.77-.52-17.73-20.83-17.73-20.83Z" style="fill: rgb(255, 255, 255); stroke: rgb(38, 50, 56); stroke-linecap: round; stroke-linejoin: round; transform-origin: 268.644px 420.317px;" id="elr4fz3k07g1" class="animable"></path><path d="M285.24,422a5.17,5.17,0,0,0-1-6.68c-.36-.25-4.35-4.92-8.46-9.78-3.76,4.55-10.55,7.09-12.05,7.62l1.75,1.64s-4.37,10.8-9.51,17.74-5.66,11-3.35,12.59,6.94,1.29,10-.77S283.18,425.08,285.24,422Z" style="fill: rgb(38, 50, 56); stroke: rgb(38, 50, 56); stroke-linecap: round; stroke-linejoin: round; transform-origin: 268.674px 425.842px;" id="el3napg6nyngd" class="animable"></path><path d="M284.54,415.6a9,9,0,0,1-1.87,4.86c-3.08,3.85-20.31,19.79-20.31,19.79l-8-5.52c-3.68,5.62-3.87,9-1.82,10.4,2.32,1.55,6.94,1.29,10-.77s20.56-19.28,22.62-22.36A5.18,5.18,0,0,0,284.54,415.6Z" style="fill: rgb(255, 255, 255); stroke: rgb(38, 50, 56); stroke-linecap: round; stroke-linejoin: round; transform-origin: 268.611px 430.863px;" id="eljnzt5s9xtwf" class="animable"></path><path d="M277.27,414.29a2.7,2.7,0,1,1-2.7-2.57A2.64,2.64,0,0,1,277.27,414.29Z" style="fill: rgb(255, 255, 255); transform-origin: 274.573px 414.42px;" id="eladk27lm44as" class="animable"></path><path d="M285.5,321.49l-1.29,4.37s-38.81.51-55.78,5.14-21.59,7.2-20.31,16.71S235.63,412,235.63,412a105.89,105.89,0,0,0,15.42-5.65A97.43,97.43,0,0,0,267.76,396l-19.54-37.28s22.37,4.63,47.3,6.94,35.48-.26,39.59-7.71-2.83-37.27-2.83-37.27l-46.52-1.55Z" style="fill: rgb(18, 211, 207); stroke: rgb(38, 50, 56); stroke-linecap: round; stroke-linejoin: round; transform-origin: 272.165px 365.565px;" id="elvk89hhnrrqr" class="animable"></path><path d="M231,346.45a15.23,15.23,0,0,1-2.29-2.86" style="fill: none; stroke: rgb(38, 50, 56); stroke-linecap: round; stroke-linejoin: round; transform-origin: 229.855px 345.02px;" id="ellss4ryzcpah" class="animable"></path><path d="M248.22,358.76a114.21,114.21,0,0,1-14.82-10.07" style="fill: none; stroke: rgb(38, 50, 56); stroke-linecap: round; stroke-linejoin: round; transform-origin: 240.81px 353.725px;" id="ellcmd3m1uzx" class="animable"></path><path d="M251.1,380.23l2.06,1" style="fill: none; stroke: rgb(38, 50, 56); stroke-linecap: round; stroke-linejoin: round; transform-origin: 252.13px 380.73px;" id="elt6xixfhr2vk" class="animable"></path><path d="M215.11,349.92a108.61,108.61,0,0,0,32.42,28.35" style="fill: none; stroke: rgb(38, 50, 56); stroke-linecap: round; stroke-linejoin: round; transform-origin: 231.32px 364.095px;" id="elivf4i1xjfi" class="animable"></path><path d="M322.81,338.53A29,29,0,0,1,325.6,341" style="fill: none; stroke: rgb(38, 50, 56); stroke-linecap: round; stroke-linejoin: round; transform-origin: 324.205px 339.765px;" id="el6rlwl1k2x8" class="animable"></path><path d="M286.78,326.37s18.84,1.46,32.14,9.48" style="fill: none; stroke: rgb(38, 50, 56); stroke-linecap: round; stroke-linejoin: round; transform-origin: 302.85px 331.11px;" id="elvkdgc4yx0yj" class="animable"></path><path d="M312.49,330.74s12.34.26,17.22,5.4" style="fill: none; stroke: rgb(38, 50, 56); stroke-linecap: round; stroke-linejoin: round; transform-origin: 321.1px 333.44px;" id="elifa8emxpnxq" class="animable"></path><path d="M289.1,244.37s-8.74,26-10,33.93-.51,42.67-.51,42.67,20.56,6.17,32.13,4.89,26-3.6,26-3.6-2.57-46-4.88-61.95-7.71-25.2-12.85-29.05a80.38,80.38,0,0,0-10.8-6.69Z" style="fill: rgb(38, 50, 56); stroke: rgb(38, 50, 56); stroke-linecap: round; stroke-linejoin: round; transform-origin: 307.544px 275.302px;" id="elhtaf7pujp3r" class="animable"></path><path d="M243.85,204.27a27.83,27.83,0,0,0,3.35,9.25c2.57,4.11,6.17,5.91,5.14,10s-1,6.94,2,7.19l3.09.26s6.17,10.54,10.8,10.54S286,229.72,286,229.72s-6.94-32.65-6.94-33.68-36.76,3.86-36.76,3.86Z" style="fill: rgb(255, 255, 255); stroke: rgb(38, 50, 56); stroke-linecap: round; stroke-linejoin: round; transform-origin: 264.15px 218.704px;" id="el058bn6l0jbzw" class="animable"></path><path d="M259.15,217.48c.49,1,.32,2.13-.39,2.47s-1.67-.22-2.16-1.25-.32-2.13.39-2.46S258.66,216.46,259.15,217.48Z" style="fill: rgb(38, 50, 56); transform-origin: 257.875px 218.097px;" id="el44bwp2s7v7r" class="animable"></path><path d="M252.85,214.55s-.26-3.6,5.14-2.83" style="fill: none; stroke: rgb(38, 50, 56); stroke-linecap: round; stroke-linejoin: round; transform-origin: 255.419px 213.081px;" id="elhl6k7sn2py4" class="animable"></path><path d="M260.36,231.82c.16.57,6.28.23,5.34-5.19" style="fill: none; stroke: rgb(38, 50, 56); stroke-linecap: round; stroke-linejoin: round; transform-origin: 263.079px 229.325px;" id="el79wqpf2xbjl" class="animable"></path><path d="M296,192.18c-.85-10.41-13.81-6.42-19.88-3.27l-.17-.32-24.42,6.94a4.84,4.84,0,0,0,2.31,5.14,35.62,35.62,0,0,0,17.49,6.85c1.82,10.88,4.36,27.14,4.36,33.25,0,9.51-3.6,13.11-3.6,13.11s16.45-5.14,26-14.14a86.14,86.14,0,0,0,14.4-17.48S297.07,204.78,296,192.18Z" style="fill: rgb(18, 211, 207); stroke: rgb(38, 50, 56); stroke-linecap: round; stroke-linejoin: round; transform-origin: 281.962px 219.668px;" id="elrmuji7vvcqm" class="animable"></path><line x1="271.37" y1="207.52" x2="270.64" y2="204.12" style="fill: none; stroke: rgb(38, 50, 56); stroke-linecap: round; stroke-linejoin: round; transform-origin: 271.005px 205.82px;" id="elbciio1qlxcg" class="animable"></line><path d="M283.57,231.18c.21,1.17.38,2.26.5,3.21" style="fill: none; stroke: rgb(38, 50, 56); stroke-linecap: round; stroke-linejoin: round; transform-origin: 283.82px 232.785px;" id="elp7uguss06e8" class="animable"></path><path d="M277.21,204.12s3.63,13.41,5.68,23.48" style="fill: none; stroke: rgb(38, 50, 56); stroke-linecap: round; stroke-linejoin: round; transform-origin: 280.05px 215.86px;" id="elk57iqrcfxfl" class="animable"></path><line x1="289.35" y1="207.49" x2="294.34" y2="220.68" style="fill: none; stroke: rgb(38, 50, 56); stroke-linecap: round; stroke-linejoin: round; transform-origin: 291.845px 214.085px;" id="elfryw9y7zv7" class="animable"></line><line x1="287.21" y1="201.83" x2="288.5" y2="205.24" style="fill: none; stroke: rgb(38, 50, 56); stroke-linecap: round; stroke-linejoin: round; transform-origin: 287.855px 203.535px;" id="elwgkqyltjlpk" class="animable"></line><line x1="293.49" y1="202.12" x2="295.77" y2="207.83" style="fill: none; stroke: rgb(38, 50, 56); stroke-linecap: round; stroke-linejoin: round; transform-origin: 294.63px 204.975px;" id="elugutytqxzp" class="animable"></line><path d="M241.33,203.87S224.13,213,229.86,213s34.41-11.85,35.55-11.85S246.3,203.1,241.33,203.87Z" style="fill: rgb(117, 117, 117); stroke: rgb(38, 50, 56); stroke-linecap: round; stroke-linejoin: round; transform-origin: 247.074px 207.075px;" id="ely711e1rg1bj" class="animable"></path><path d="M241.33,203.87s-10.29,3.26-5.7-7.83,35.84-27.25,48.84-27.25,22.61,19.4,20.7,25.52-6.12,6.88-8,6.88S241.33,203.87,241.33,203.87Z" style="fill: rgb(117, 117, 117); stroke: rgb(38, 50, 56); stroke-linecap: round; stroke-linejoin: round; transform-origin: 269.932px 186.553px;" id="el4wxw8x89257" class="animable"></path><path d="M246.3,200.43s18.73.38,34.79-1.91,22.55-4.59,22.55-4.59" style="fill: none; stroke: rgb(38, 50, 56); stroke-linecap: round; stroke-linejoin: round; transform-origin: 274.97px 197.192px;" id="elisdqr2wll2k" class="animable"></path><line x1="301.35" y1="198.9" x2="276.12" y2="199.28" style="fill: none; stroke: rgb(38, 50, 56); stroke-linecap: round; stroke-linejoin: round; transform-origin: 288.735px 199.09px;" id="el0jucc02clz8b" class="animable"></line><path d="M285.5,299.89,282.16,303s-41.65-5.4-44.48-4.63-12.85,3.6-12.85,3.6l-8,.51-6.42,10.8h2.05l4.63-6.43H220l-4.89,5.66L213,315.57l7.19.26,1.05-.89,4.1-3.48-1.29,3.86h1.54l3.6-6.17,4.89-2.57,5.14-3.6s52.44,18.25,53.72,19,4.12,2.83,6.43.77,8.48-19.28,8.48-19.28Z" style="fill: rgb(255, 255, 255); stroke: rgb(38, 50, 56); stroke-linecap: round; stroke-linejoin: round; transform-origin: 259.13px 310.965px;" id="eli8x5g1w0hko" class="animable"></path><path d="M216.22,315.22a35.91,35.91,0,0,0,7-7.31s.35-2.71,2.71-3.14" style="fill: none; stroke: rgb(38, 50, 56); stroke-linecap: round; stroke-linejoin: round; transform-origin: 221.075px 309.995px;" id="eldv2a9r04so5" class="animable"></path><polyline points="225.35 311.46 226.51 306.99 227.79 305.96" style="fill: none; stroke: rgb(38, 50, 56); stroke-linecap: round; stroke-linejoin: round; transform-origin: 226.57px 308.71px;" id="elqecvfmnokep" class="animable"></polyline><path d="M220,306.83a14.24,14.24,0,0,1,2.44-2.94c.87-.52,1.4-.78,1.4-.78" style="fill: none; stroke: rgb(38, 50, 56); stroke-linecap: round; stroke-linejoin: round; transform-origin: 221.92px 304.97px;" id="elylvkkjju2p" class="animable"></path><path d="M263.5,311.46C277.42,316.34,292.28,321.6,293,322c1.29.77,4.12,2.83,6.43.77s8.48-19.28,8.48-19.28l-22.36-3.6L282.16,303s-7.66-1-16.62-2.07Z" style="fill: rgb(117, 117, 117); stroke: rgb(38, 50, 56); stroke-linecap: round; stroke-linejoin: round; transform-origin: 285.705px 311.775px;" id="elk4jwg98on5" class="animable"></path><path d="M293,260.82,281.9,298.09s1,5.15,11.31,8a64,64,0,0,0,17.48,2.57l8.23-46.27" style="fill: rgb(38, 50, 56); stroke: rgb(38, 50, 56); stroke-linecap: round; stroke-linejoin: round; transform-origin: 300.41px 284.74px;" id="eley6k3a86qu" class="animable"></path><line x1="292.26" y1="264.18" x2="282.23" y2="295.27" style="fill: none; stroke: rgb(112, 112, 112); stroke-linecap: round; stroke-linejoin: round; transform-origin: 287.245px 279.725px;" id="eltbdkbd7o8a" class="animable"></line><line x1="316.75" y1="274.14" x2="311.82" y2="305.8" style="fill: none; stroke: rgb(112, 112, 112); stroke-linecap: round; stroke-linejoin: round; transform-origin: 314.285px 289.97px;" id="elepvlwhcgjk6" class="animable"></line><line x1="317.83" y1="267.18" x2="317.29" y2="270.66" style="fill: none; stroke: rgb(112, 112, 112); stroke-linecap: round; stroke-linejoin: round; transform-origin: 317.56px 268.92px;" id="el4rgy5vnk0u" class="animable"></line></g><g id="freepik--Table--inject-52" class="animable" style="transform-origin: 194.87px 388.955px;"><rect x="191.5" y="320.5" width="9" height="133.8" style="fill: rgb(38, 50, 56); stroke: rgb(38, 50, 56); stroke-linecap: round; stroke-linejoin: round; transform-origin: 196px 387.4px;" id="elel67huuxw98" class="animable"></rect><rect x="127.89" y="318.14" width="133.96" height="5.53" style="fill: rgb(117, 117, 117); stroke: rgb(38, 50, 56); stroke-linecap: round; stroke-linejoin: round; transform-origin: 194.87px 320.905px;" id="el37g07mcz9w6" class="animable"></rect><path d="M244.23,459.77H147.79a5.54,5.54,0,0,1,5.53-5.53H238.7a5.54,5.54,0,0,1,5.53,5.53Z" style="fill: rgb(117, 117, 117); stroke: rgb(38, 50, 56); stroke-linecap: round; stroke-linejoin: round; transform-origin: 196.01px 457.005px;" id="eljc4ijgubv7g" class="animable"></path></g><g id="freepik--Coffee--inject-52" class="animable" style="transform-origin: 157.48px 301.035px;"><polygon points="166.61 319.12 149.01 319.12 146.37 286.2 169.25 286.2 166.61 319.12" style="fill: rgb(18, 211, 207); stroke: rgb(38, 50, 56); stroke-linecap: round; stroke-linejoin: round; transform-origin: 157.81px 302.66px;" id="elctwuqsjupuf" class="animable"></polygon><rect x="144.77" y="282.95" width="25.42" height="7.5" style="fill: rgb(255, 255, 255); stroke: rgb(38, 50, 56); stroke-linecap: round; stroke-linejoin: round; transform-origin: 157.48px 286.7px;" id="el8m4ppq9rvyg" class="animable"></rect><polygon points="167.34 309.99 168.31 297.94 147.31 297.94 148.28 309.99 167.34 309.99" style="fill: rgb(255, 255, 255); stroke: rgb(38, 50, 56); stroke-linecap: round; stroke-linejoin: round; transform-origin: 157.81px 303.965px;" id="elaz5wura9tyd" class="animable"></polygon></g><g id="freepik--Floor--inject-52" class="animable" style="transform-origin: 254.9px 459.93px;"><line x1="452.33" y1="459.93" x2="464.33" y2="459.93" style="fill: none; stroke: rgb(38, 50, 56); stroke-linecap: round; stroke-linejoin: round; transform-origin: 458.33px 459.93px;" id="elu8ytpaytec" class="animable"></line><line x1="432.33" y1="459.93" x2="445" y2="459.93" style="fill: none; stroke: rgb(38, 50, 56); stroke-linecap: round; stroke-linejoin: round; transform-origin: 438.665px 459.93px;" id="el6pblafsme1q" class="animable"></line><line x1="127.67" y1="459.93" x2="425" y2="459.93" style="fill: none; stroke: rgb(38, 50, 56); stroke-linecap: round; stroke-linejoin: round; transform-origin: 276.335px 459.93px;" id="ellatkz0a6q5m" class="animable"></line><line x1="45.47" y1="459.93" x2="118.33" y2="459.93" style="fill: none; stroke: rgb(38, 50, 56); stroke-linecap: round; stroke-linejoin: round; transform-origin: 81.9px 459.93px;" id="elmyslrqp69aj" class="animable"></line></g><defs>     <filter id="active" height="200%">         <feMorphology in="SourceAlpha" result="DILATED" operator="dilate" radius="2"></feMorphology>                <feFlood flood-color="#32DFEC" flood-opacity="1" result="PINK"></feFlood>        <feComposite in="PINK" in2="DILATED" operator="in" result="OUTLINE"></feComposite>        <feMerge>            <feMergeNode in="OUTLINE"></feMergeNode>            <feMergeNode in="SourceGraphic"></feMergeNode>        </feMerge>    </filter>    <filter id="hover" height="200%">        <feMorphology in="SourceAlpha" result="DILATED" operator="dilate" radius="2"></feMorphology>                <feFlood flood-color="#ff0000" flood-opacity="0.5" result="PINK"></feFlood>        <feComposite in="PINK" in2="DILATED" operator="in" result="OUTLINE"></feComposite>        <feMerge>            <feMergeNode in="OUTLINE"></feMergeNode>            <feMergeNode in="SourceGraphic"></feMergeNode>        </feMerge>            <feColorMatrix type="matrix" values="0   0   0   0   0                0   1   0   0   0                0   0   0   0   0                0   0   0   1   0 "></feColorMatrix>    </filter></defs></svg>